<svg width="20" height="20" viewBox="0 0 20 20" fill="none" xmlns="http://www.w3.org/2000/svg">
<path d="M19.3347 9.84966L11.0331 1.5524L10.4767 0.995953C10.3499 0.870004 10.1784 0.799316 9.9997 0.799316C9.82099 0.799316 9.64953 0.870004 9.52275 0.995953L0.664737 9.84966C0.534824 9.97907 0.432151 10.1332 0.362779 10.3029C0.293407 10.4727 0.258743 10.6546 0.260831 10.8379C0.269425 11.5942 0.898917 12.1979 1.65517 12.1979H2.56825V19.1954H17.4311V12.1979H18.3636C18.7309 12.1979 19.0768 12.054 19.3368 11.794C19.4648 11.6664 19.5662 11.5147 19.6352 11.3476C19.7042 11.1806 19.7393 11.0015 19.7386 10.8208C19.7386 10.4555 19.5946 10.1096 19.3347 9.84966ZM11.2028 17.6485H8.79657V13.2657H11.2028V17.6485ZM15.8843 10.651V17.6485H12.5778V12.7501C12.5778 12.2753 12.1933 11.8907 11.7184 11.8907H8.28095C7.80614 11.8907 7.42157 12.2753 7.42157 12.7501V17.6485H4.11513V10.651H2.05263L10.0018 2.70826L10.4981 3.20455L17.9489 10.651H15.8843Z" fill="#F1B537"/>
</svg>
