<svg id="Layer_1" data-name="Layer 1" xmlns="http://www.w3.org/2000/svg" viewBox="0 0 23 17.72"><path d="M1.7,10.32a.88.88,0,1,1,0-1.76Zm20.24-.88.63-.62a.89.89,0,0,1,0,1.28Zm-7.33,7.7a.88.88,0,0,1-1.17-1.32Zm-1.21-15A.88.88,0,0,1,14.65.9ZM1.89,8.56H21.94v1.76h-20a.2.2,0,0,1-.19-.19V8.75A.2.2,0,0,1,1.89,8.56Zm20.49,1.67L14.76,17a.21.21,0,0,1-.29,0l-.9-1a.2.2,0,0,1,0-.28l7.77-6.91,1,1.17A.19.19,0,0,1,22.38,10.23Zm-1.06-.17L13.54,2.29a.23.23,0,0,1,0-.29l1-1a.21.21,0,0,1,.29,0l7.63,7.63a.21.21,0,0,1,0,.29Z" transform="translate(-0.32 -0.14)" style="fill:#f1b537;stroke:#f1b537;stroke-miterlimit:10"/></svg>