<svg width="6" height="13" viewBox="0 0 6 13" fill="none" xmlns="http://www.w3.org/2000/svg">
<path d="M0.134519 0.902336L4.91646 6.50057L0.134519 12.0988C0.0489094 12.1988 0.000981406 12.3331 0.000981414 12.4729C0.000981421 12.6127 0.0489095 12.747 0.134519 12.847C0.176101 12.8955 0.225731 12.9339 0.280506 12.9602C0.335281 12.9865 0.394098 13 0.453511 13C0.512925 13 0.571742 12.9865 0.626516 12.9602C0.681291 12.9339 0.730922 12.8955 0.772503 12.847L5.86067 6.89149C5.95 6.7869 6 6.64662 6 6.50057C6 6.35452 5.95 6.21425 5.86067 6.10966L0.773485 0.154113C0.731872 0.10534 0.682119 0.066575 0.627163 0.0401048C0.572207 0.0136356 0.513161 -9.71158e-07 0.453511 -9.69125e-07C0.39386 -9.67093e-07 0.334814 0.0136356 0.279858 0.0401049C0.224902 0.066575 0.175149 0.10534 0.133537 0.154113C0.0479268 0.254135 -7.07274e-07 0.388407 -6.99433e-07 0.528225C-6.91591e-07 0.668043 0.0479269 0.802315 0.133537 0.902336L0.134519 0.902336Z" fill="#878D92"/>
</svg>
