<svg width="60" height="60" viewBox="0 0 60 60" fill="none" xmlns="http://www.w3.org/2000/svg">
<path d="M18.75 56.25H15V50.625H7.5V56.25H3.75V50.625C3.75099 49.6307 4.1464 48.6775 4.84945 47.9744C5.55249 47.2714 6.50574 46.876 7.5 46.875H15C15.9943 46.876 16.9475 47.2714 17.6506 47.9744C18.3536 48.6775 18.749 49.6307 18.75 50.625V56.25ZM56.25 56.25H52.5V50.625H45V56.25H41.25V50.625C41.251 49.6307 41.6464 48.6775 42.3494 47.9744C43.0525 47.2714 44.0057 46.876 45 46.875H52.5C53.4943 46.876 54.4475 47.2714 55.1506 47.9744C55.8536 48.6775 56.249 49.6307 56.25 50.625V56.25ZM37.5 56.25H33.75V50.625H26.25V56.25H22.5V50.625C22.501 49.6307 22.8964 48.6775 23.5994 47.9744C24.3025 47.2714 25.2557 46.876 26.25 46.875H33.75C34.7443 46.876 35.6975 47.2714 36.4006 47.9744C37.1036 48.6775 37.499 49.6307 37.5 50.625V56.25Z" fill="#F1B537"/>
<path d="M30 45C32.0711 45 33.75 43.3211 33.75 41.25C33.75 39.1789 32.0711 37.5 30 37.5C27.9289 37.5 26.25 39.1789 26.25 41.25C26.25 43.3211 27.9289 45 30 45Z" fill="#F1B537"/>
<path d="M11.25 45C13.3211 45 15 43.3211 15 41.25C15 39.1789 13.3211 37.5 11.25 37.5C9.17893 37.5 7.5 39.1789 7.5 41.25C7.5 43.3211 9.17893 45 11.25 45Z" fill="#F1B537"/>
<path d="M48.75 45C50.8211 45 52.5 43.3211 52.5 41.25C52.5 39.1789 50.8211 37.5 48.75 37.5C46.6789 37.5 45 39.1789 45 41.25C45 43.3211 46.6789 45 48.75 45Z" fill="#F1B537"/>
<path d="M39.375 37.5C41.4461 37.5 43.125 35.8211 43.125 33.75C43.125 31.6789 41.4461 30 39.375 30C37.3039 30 35.625 31.6789 35.625 33.75C35.625 35.8211 37.3039 37.5 39.375 37.5Z" fill="#F1B537"/>
<path d="M20.625 37.5C22.6961 37.5 24.375 35.8211 24.375 33.75C24.375 31.6789 22.6961 30 20.625 30C18.5539 30 16.875 31.6789 16.875 33.75C16.875 35.8211 18.5539 37.5 20.625 37.5Z" fill="#F1B537"/>
<path d="M48.75 26.25H11.25C10.2557 26.249 9.30249 25.8536 8.59945 25.1506C7.8964 24.4475 7.50099 23.4943 7.5 22.5V7.5C7.50099 6.50574 7.8964 5.55249 8.59945 4.84945C9.30249 4.1464 10.2557 3.75099 11.25 3.75H48.75C49.7443 3.75099 50.6975 4.1464 51.4006 4.84945C52.1036 5.55249 52.499 6.50574 52.5 7.5V22.5C52.499 23.4943 52.1036 24.4475 51.4006 25.1506C50.6975 25.8536 49.7443 26.249 48.75 26.25ZM11.25 7.5V22.5H48.75V7.5H11.25Z" fill="#F1B537"/>
</svg>
