<svg width="52" height="52" viewBox="0 0 52 52" fill="none" xmlns="http://www.w3.org/2000/svg">
<path d="M26 0C30.717 0 35.0673 1.16233 39.0508 3.48698C43.0343 5.81163 46.1884 8.96571 48.513 12.9492C50.8377 16.9327 52 21.283 52 26C52 30.717 50.8377 35.0673 48.513 39.0508C46.1884 43.0343 43.0343 46.1884 39.0508 48.513C35.0673 50.8377 30.717 52 26 52C21.283 52 16.9327 50.8377 12.9492 48.513C8.96571 46.1884 5.81163 43.0343 3.48698 39.0508C1.16233 35.0673 0 30.717 0 26C0 21.283 1.16233 16.9327 3.48698 12.9492C5.81163 8.96571 8.96571 5.81163 12.9492 3.48698C16.9327 1.16233 21.283 0 26 0ZM35.276 17.638C35.2309 17.6606 35.1237 17.7678 34.9544 17.9596C34.7852 18.1515 34.6328 18.2587 34.4974 18.2812C34.5425 18.2812 34.5933 18.2248 34.6497 18.112C34.7062 17.9991 34.7626 17.875 34.819 17.7396C34.8754 17.6042 34.9149 17.5252 34.9375 17.5026C35.0729 17.3446 35.3212 17.1753 35.6823 16.9948C35.9983 16.8594 36.5851 16.724 37.4427 16.5885C38.2101 16.408 38.7856 16.5321 39.1693 16.9609C39.1241 16.9158 39.2313 16.7691 39.4909 16.5208C39.7504 16.2726 39.9141 16.1372 39.9818 16.1146C40.0495 16.0694 40.2188 16.0187 40.4896 15.9622C40.7604 15.9058 40.9297 15.8212 40.9974 15.7083L41.0651 14.9635C40.7943 14.9861 40.5968 14.9071 40.4727 14.7266C40.3485 14.546 40.2752 14.309 40.2526 14.0156C40.2526 14.0608 40.1849 14.151 40.0495 14.2865C40.0495 14.1285 39.9987 14.0382 39.8971 14.0156C39.7956 13.9931 39.6658 14.0043 39.5078 14.0495C39.3498 14.0946 39.2483 14.1059 39.2031 14.0833C38.9774 14.0156 38.8082 13.931 38.6953 13.8294C38.5825 13.7279 38.4922 13.5417 38.4245 13.2708C38.3568 13 38.3116 12.8307 38.2891 12.763C38.2439 12.6502 38.1367 12.526 37.9674 12.3906C37.7982 12.2552 37.691 12.1424 37.6458 12.0521C37.6233 12.0069 37.5951 11.9449 37.5612 11.8659C37.5273 11.7869 37.4935 11.7135 37.4596 11.6458C37.4258 11.5781 37.3806 11.5161 37.3242 11.4596C37.2678 11.4032 37.2057 11.375 37.138 11.375C37.0703 11.375 36.9913 11.4314 36.901 11.5443C36.8108 11.6571 36.7261 11.77 36.6471 11.8828C36.5681 11.9957 36.5174 12.0521 36.4948 12.0521C36.4271 12.0069 36.3594 11.99 36.2917 12.0013C36.224 12.0126 36.1732 12.0239 36.1393 12.0352C36.1055 12.0464 36.0547 12.0803 35.987 12.1367C35.9193 12.1931 35.8629 12.2326 35.8177 12.2552C35.75 12.3003 35.6541 12.3342 35.5299 12.3568C35.4058 12.3793 35.3099 12.4019 35.2422 12.4245C35.5807 12.3116 35.5694 12.1875 35.2083 12.0521C34.9826 11.9618 34.8021 11.928 34.6667 11.9505C34.8698 11.8602 34.9544 11.7248 34.9206 11.5443C34.8867 11.3637 34.7908 11.2057 34.6328 11.0703H34.8021C34.7795 10.98 34.6836 10.8841 34.5143 10.7826C34.3451 10.681 34.1476 10.5851 33.9219 10.4948C33.6962 10.4045 33.5495 10.3368 33.4818 10.2917C33.3012 10.1788 32.9175 10.0716 32.3307 9.97005C31.7439 9.86849 31.3715 9.86285 31.2135 9.95312C31.1007 10.0885 31.0499 10.207 31.0612 10.3086C31.0725 10.4102 31.1176 10.5681 31.1966 10.7826C31.2756 10.997 31.3151 11.138 31.3151 11.2057C31.3377 11.3411 31.2756 11.4878 31.1289 11.6458C30.9822 11.8038 30.9089 11.9392 30.9089 12.0521C30.9089 12.2101 31.0668 12.385 31.3828 12.5768C31.6988 12.7687 31.8116 13.0113 31.7214 13.3047C31.6536 13.4852 31.4731 13.6658 31.1797 13.8464C30.8863 14.0269 30.7057 14.1623 30.638 14.2526C30.5252 14.4332 30.5082 14.6419 30.5872 14.8789C30.6662 15.1159 30.7847 15.3021 30.9427 15.4375C30.9878 15.4826 31.0048 15.5278 30.9935 15.5729C30.9822 15.6181 30.9427 15.6688 30.875 15.7253C30.8073 15.7817 30.7452 15.8268 30.6888 15.8607C30.6324 15.8945 30.559 15.934 30.4688 15.9792L30.3672 16.0469C30.1189 16.1597 29.8876 16.092 29.6732 15.8438C29.4588 15.5955 29.3064 15.3021 29.2161 14.9635C29.0582 14.3993 28.8776 14.0608 28.6745 13.9479C28.1554 13.7674 27.8281 13.7786 27.6927 13.9818C27.5799 13.6884 27.1172 13.395 26.3047 13.1016C25.7405 12.8984 25.0859 12.8533 24.3411 12.9661C24.4766 12.9436 24.4766 12.7743 24.3411 12.4583C24.1832 12.1198 23.9688 11.9844 23.6979 12.0521C23.7656 11.9167 23.8108 11.7192 23.8333 11.4596C23.8559 11.2001 23.8672 11.0477 23.8672 11.0026C23.9349 10.7092 24.0703 10.4497 24.2734 10.224C24.296 10.2014 24.375 10.1055 24.5104 9.9362C24.6458 9.76693 24.753 9.61458 24.832 9.47917C24.911 9.34375 24.9167 9.27604 24.849 9.27604C25.6389 9.36632 26.2031 9.24219 26.5417 8.90365C26.6545 8.7908 26.7843 8.59896 26.931 8.32812C27.0777 8.05729 27.1962 7.86545 27.2865 7.7526C27.4896 7.61719 27.6476 7.55512 27.7604 7.56641C27.8733 7.57769 28.0369 7.63976 28.2513 7.7526C28.4657 7.86545 28.6293 7.92188 28.7422 7.92188C29.0582 7.94444 29.2331 7.82031 29.2669 7.54948C29.3008 7.27865 29.2161 7.05295 29.013 6.8724C29.2839 6.89497 29.3177 6.70313 29.1146 6.29688C29.0243 6.13889 28.934 6.03733 28.8438 5.99219C28.5729 5.90191 28.2682 5.95833 27.9297 6.16146C27.7491 6.25174 27.7717 6.34201 27.9974 6.43229C27.9748 6.40972 27.8676 6.52821 27.6758 6.78776C27.4839 7.04731 27.2977 7.24479 27.1172 7.38021C26.9366 7.51563 26.7561 7.4592 26.5755 7.21094C26.553 7.18837 26.4909 7.03602 26.3893 6.75391C26.2878 6.47179 26.1806 6.31944 26.0677 6.29688C25.8872 6.29688 25.7066 6.46615 25.526 6.80469C25.5938 6.62413 25.4696 6.45486 25.1536 6.29688C24.8377 6.13889 24.5668 6.04861 24.3411 6.02604C24.77 5.75521 24.6797 5.45052 24.0703 5.11198C23.9123 5.0217 23.681 4.96528 23.3763 4.94271C23.0716 4.92014 22.8516 4.96528 22.7161 5.07812C22.6033 5.23611 22.5412 5.36589 22.5299 5.46745C22.5187 5.56901 22.5751 5.65929 22.6992 5.73828C22.8234 5.81727 22.9418 5.87934 23.0547 5.92448C23.1675 5.96962 23.2973 6.01476 23.444 6.0599C23.5907 6.10503 23.6866 6.13889 23.7318 6.16146C24.0477 6.38715 24.138 6.54514 24.0026 6.63542C23.9575 6.65799 23.8615 6.69748 23.7148 6.75391C23.5681 6.81033 23.4384 6.86111 23.3255 6.90625C23.2127 6.95139 23.145 6.99653 23.1224 7.04167C23.0547 7.13194 23.0547 7.28993 23.1224 7.51563C23.1901 7.74132 23.1675 7.89931 23.0547 7.98958C22.9418 7.87674 22.8403 7.67925 22.75 7.39714C22.6597 7.11502 22.5807 6.92882 22.513 6.83854C22.671 7.04167 22.3889 7.10938 21.6667 7.04167L21.3281 7.00781C21.2378 7.00781 21.0573 7.03038 20.7865 7.07552C20.5156 7.12066 20.2843 7.13194 20.0924 7.10938C19.9006 7.08681 19.7483 6.99653 19.6354 6.83854C19.5451 6.65799 19.5451 6.43229 19.6354 6.16146C19.658 6.07118 19.7031 6.04861 19.7708 6.09375C19.6806 6.02604 19.5564 5.91884 19.3984 5.77214C19.2405 5.62543 19.1276 5.52951 19.0599 5.48438C18.0217 5.82292 16.9609 6.28559 15.8776 6.8724C16.013 6.89497 16.1484 6.88368 16.2839 6.83854C16.3967 6.7934 16.5434 6.72005 16.724 6.61849C16.9045 6.51693 17.0174 6.45486 17.0625 6.43229C17.8299 6.11632 18.3038 6.03733 18.4844 6.19531L18.6536 6.02604C18.9696 6.38715 19.1953 6.66927 19.3307 6.8724C19.1727 6.78212 18.8342 6.77083 18.3151 6.83854C17.8637 6.97396 17.6155 7.10938 17.5703 7.24479C17.7283 7.51563 17.7847 7.71875 17.7396 7.85417C17.6493 7.78646 17.5195 7.67361 17.3503 7.51563C17.181 7.35764 17.0174 7.23351 16.8594 7.14323C16.7014 7.05295 16.5321 6.99653 16.3516 6.97396C15.9905 6.97396 15.7422 6.98524 15.6068 7.00781C12.3116 8.81337 9.65972 11.3186 7.65104 14.5234C7.80903 14.6814 7.94444 14.7717 8.05729 14.7943C8.14757 14.8168 8.20399 14.9184 8.22656 15.099C8.24913 15.2795 8.27734 15.4036 8.3112 15.4714C8.34505 15.5391 8.47483 15.5052 8.70052 15.3698C8.90365 15.5503 8.9375 15.7648 8.80208 16.013C8.82465 15.9905 9.32118 16.2951 10.2917 16.9271C10.7205 17.3108 10.9575 17.5477 11.0026 17.638C11.0703 17.8863 10.9575 18.0894 10.6641 18.2474C10.6415 18.2023 10.5399 18.1007 10.3594 17.9427C10.1788 17.7847 10.0773 17.7396 10.0547 17.8073C9.98698 17.9201 9.99262 18.1289 10.0716 18.4336C10.1506 18.7383 10.2691 18.8793 10.4271 18.8568C10.2691 18.8568 10.1619 19.0373 10.1055 19.3984C10.049 19.7596 10.0208 20.1602 10.0208 20.6003C10.0208 21.0404 10.0095 21.3056 9.98698 21.3958L10.0547 21.4297C9.98698 21.7005 10.049 22.0898 10.2409 22.5977C10.4327 23.1055 10.6753 23.3255 10.9688 23.2578C10.6753 23.3255 10.901 23.8108 11.6458 24.7135C11.7812 24.8941 11.8715 24.9957 11.9167 25.0182C11.9844 25.0634 12.1198 25.148 12.3229 25.2721C12.526 25.3963 12.6953 25.5091 12.8307 25.6107C12.9661 25.7122 13.079 25.8307 13.1693 25.9661C13.2595 26.079 13.3724 26.3329 13.5078 26.7279C13.6432 27.1228 13.8012 27.388 13.9818 27.5234C13.9366 27.6589 14.0438 27.8846 14.3034 28.2005C14.5629 28.5165 14.6814 28.776 14.6589 28.9792C14.6363 28.9792 14.6081 28.9905 14.5742 29.013C14.5404 29.0356 14.5122 29.0469 14.4896 29.0469C14.5573 29.2049 14.7322 29.3628 15.0143 29.5208C15.2964 29.6788 15.4714 29.8255 15.5391 29.9609C15.5616 30.0286 15.5842 30.1415 15.6068 30.2995C15.6293 30.4575 15.6632 30.5816 15.7083 30.6719C15.7535 30.7622 15.8438 30.7847 15.9792 30.7396C16.0243 30.2882 15.7535 29.5885 15.1667 28.6406C14.8281 28.0764 14.6363 27.7491 14.5911 27.6589C14.5234 27.546 14.4614 27.3711 14.4049 27.1341C14.3485 26.8971 14.2977 26.7335 14.2526 26.6432C14.2977 26.6432 14.3655 26.6602 14.4557 26.694C14.546 26.7279 14.6419 26.7674 14.7435 26.8125C14.8451 26.8576 14.9297 26.9028 14.9974 26.9479C15.0651 26.9931 15.0877 27.0269 15.0651 27.0495C14.9974 27.2075 15.02 27.4049 15.1328 27.6419C15.2457 27.8789 15.3811 28.0877 15.5391 28.2682C15.697 28.4488 15.8889 28.6632 16.1146 28.9115C16.3403 29.1597 16.4757 29.3064 16.5208 29.3516C16.6562 29.487 16.8142 29.707 16.9948 30.0117C17.1753 30.3164 17.1753 30.4688 16.9948 30.4688C17.1979 30.4688 17.4236 30.5872 17.6719 30.8242C17.9201 31.0612 18.112 31.2813 18.2474 31.4844C18.3602 31.6649 18.4505 31.9583 18.5182 32.3646C18.5859 32.7708 18.6424 33.0417 18.6875 33.1771C18.7326 33.3351 18.8286 33.4874 18.9753 33.6341C19.122 33.7808 19.263 33.888 19.3984 33.9557L19.9401 34.2266L20.3802 34.4635C20.4931 34.5087 20.7018 34.6272 21.0065 34.819C21.3112 35.0109 21.5538 35.1406 21.7344 35.2083C21.9601 35.2986 22.1406 35.3438 22.276 35.3438C22.4115 35.3438 22.5751 35.3155 22.7669 35.2591C22.9588 35.2027 23.1111 35.1632 23.224 35.1406C23.5625 35.0955 23.8898 35.2648 24.2057 35.6484C24.5217 36.0321 24.7587 36.2691 24.9167 36.3594C25.7292 36.7882 26.3498 36.9123 26.7786 36.7318C26.7335 36.7543 26.7392 36.839 26.7956 36.9857C26.852 37.1324 26.9423 37.3073 27.0664 37.5104C27.1905 37.7135 27.2921 37.8772 27.3711 38.0013C27.4501 38.1254 27.5122 38.2214 27.5573 38.2891C27.6701 38.4245 27.8733 38.5938 28.1667 38.7969C28.4601 39 28.6632 39.1693 28.776 39.3047C28.9115 39.2144 28.9905 39.1129 29.013 39C28.9453 39.1806 29.0243 39.4062 29.25 39.6771C29.4757 39.9479 29.6788 40.0608 29.8594 40.0156C30.1753 39.9479 30.3333 39.5868 30.3333 38.9323C29.6337 39.2708 29.0807 39.0677 28.6745 38.3229C28.6745 38.3004 28.6463 38.2383 28.5898 38.1367C28.5334 38.0352 28.4883 37.9392 28.4544 37.849C28.4206 37.7587 28.3924 37.6628 28.3698 37.5612C28.3472 37.4596 28.3472 37.375 28.3698 37.3073C28.3924 37.2396 28.4488 37.2057 28.5391 37.2057C28.7422 37.2057 28.855 37.1662 28.8776 37.0872C28.9002 37.0082 28.8776 36.8672 28.8099 36.6641C28.7422 36.4609 28.6971 36.3142 28.6745 36.224C28.6519 36.0434 28.5278 35.8177 28.3021 35.5469C28.0764 35.276 27.941 35.1068 27.8958 35.0391C27.783 35.2422 27.6024 35.3325 27.3542 35.3099C27.1059 35.2873 26.9253 35.1858 26.8125 35.0052C26.8125 35.0278 26.7956 35.0898 26.7617 35.1914C26.7279 35.293 26.7109 35.3663 26.7109 35.4115C26.4175 35.4115 26.2483 35.4002 26.2031 35.3776C26.2257 35.3099 26.2539 35.1124 26.2878 34.7852C26.3216 34.4579 26.3611 34.204 26.4063 34.0234C26.4288 33.9332 26.4909 33.7977 26.5924 33.6172C26.694 33.4366 26.7786 33.273 26.8464 33.1263C26.9141 32.9796 26.9592 32.8385 26.9818 32.7031C27.0043 32.5677 26.9536 32.4605 26.8294 32.3815C26.7053 32.3025 26.5078 32.2743 26.237 32.2969C25.8082 32.3194 25.5148 32.5451 25.3568 32.974C25.3342 33.0417 25.3003 33.1602 25.2552 33.3294C25.2101 33.4987 25.1536 33.6285 25.0859 33.7188C25.0182 33.809 24.9167 33.888 24.7812 33.9557C24.6233 34.0234 24.3524 34.046 23.9688 34.0234C23.5851 34.0009 23.3142 33.9444 23.1562 33.8542C22.8628 33.6736 22.6089 33.3464 22.3945 32.8724C22.1801 32.3984 22.0729 31.9809 22.0729 31.6198C22.0729 31.3941 22.1011 31.0951 22.1576 30.7227C22.214 30.3503 22.2478 30.0681 22.2591 29.8763C22.2704 29.6845 22.2083 29.408 22.0729 29.0469C22.1406 29.0017 22.2422 28.8945 22.3776 28.7253C22.513 28.556 22.6259 28.4375 22.7161 28.3698C22.7613 28.3472 22.8121 28.3303 22.8685 28.319C22.9249 28.3077 22.9757 28.3077 23.0208 28.319C23.066 28.3303 23.1111 28.3134 23.1562 28.2682C23.2014 28.2231 23.2352 28.1554 23.2578 28.0651C23.2352 28.0425 23.1901 28.0087 23.1224 27.9635C23.0547 27.8958 23.0096 27.862 22.987 27.862C23.145 27.9297 23.4666 27.9128 23.9518 27.8112C24.4371 27.7096 24.7474 27.7266 24.8828 27.862C25.2214 28.1102 25.4696 28.0877 25.6276 27.7943C25.6276 27.7717 25.5994 27.6645 25.543 27.4727C25.4865 27.2808 25.4809 27.1285 25.526 27.0156C25.6389 27.625 25.9661 27.7266 26.5078 27.3203C26.5755 27.388 26.7504 27.4444 27.0326 27.4896C27.3147 27.5347 27.5122 27.5911 27.625 27.6589C27.6927 27.704 27.7717 27.7661 27.862 27.8451C27.9523 27.924 28.0143 27.9748 28.0482 27.9974C28.082 28.02 28.1385 28.0143 28.2174 27.9805C28.2964 27.9466 28.3924 27.8733 28.5052 27.7604C28.7309 28.0764 28.8663 28.3472 28.9115 28.5729C29.1597 29.4757 29.3741 29.9722 29.5547 30.0625C29.7127 30.1302 29.8368 30.1528 29.9271 30.1302C30.0174 30.1076 30.0681 30.0004 30.0794 29.8086C30.0907 29.6168 30.0907 29.4588 30.0794 29.3346C30.0681 29.2105 30.0512 29.0694 30.0286 28.9115L29.9948 28.6406V28.0313L29.9609 27.7604C29.6224 27.6927 29.4136 27.5573 29.3346 27.3542C29.2556 27.151 29.2726 26.9423 29.3854 26.7279C29.4983 26.5135 29.6675 26.3047 29.8932 26.1016C29.9158 26.079 30.0061 26.0395 30.1641 25.9831C30.3221 25.9267 30.497 25.8533 30.6888 25.763C30.8806 25.6727 31.0217 25.5825 31.112 25.4922C31.5859 25.0634 31.7552 24.6684 31.6198 24.3073C31.7778 24.3073 31.9019 24.2057 31.9922 24.0026C31.9696 24.0026 31.9132 23.9688 31.8229 23.901C31.7326 23.8333 31.648 23.7769 31.569 23.7318C31.49 23.6866 31.4392 23.6641 31.4167 23.6641C31.6198 23.5512 31.6424 23.3707 31.4844 23.1224C31.5972 23.0547 31.6819 22.9306 31.7383 22.75C31.7947 22.5694 31.8793 22.4566 31.9922 22.4115C32.1953 22.6823 32.4323 22.7049 32.7031 22.4792C32.8837 22.2986 32.895 22.1181 32.737 21.9375C32.8498 21.7795 33.0812 21.661 33.431 21.582C33.7808 21.503 33.9896 21.3958 34.0573 21.2604C34.2153 21.3056 34.3056 21.283 34.3281 21.1927C34.3507 21.1024 34.362 20.967 34.362 20.7865C34.362 20.6059 34.3958 20.4705 34.4635 20.3802C34.5538 20.2674 34.7231 20.1658 34.9714 20.0755C35.2196 19.9852 35.3663 19.9288 35.4115 19.9062L35.987 19.5339C36.0547 19.4436 36.0547 19.3984 35.987 19.3984C36.3932 19.4436 36.7431 19.3194 37.0365 19.026C37.2622 18.7778 37.1944 18.5521 36.8333 18.349C36.901 18.2135 36.8672 18.1063 36.7318 18.0273C36.5964 17.9484 36.4271 17.8863 36.224 17.8411C36.2917 17.8186 36.4214 17.8129 36.6133 17.8242C36.8051 17.8355 36.9236 17.8186 36.9688 17.7734C37.3073 17.5477 37.2283 17.3672 36.7318 17.2318C36.3481 17.1189 35.8629 17.2543 35.276 17.638ZM29.7578 47.3281C34.4071 46.5156 38.3681 44.3828 41.6406 40.9297C41.5729 40.862 41.4319 40.8112 41.2174 40.7773C41.003 40.7435 40.862 40.704 40.7943 40.6589C40.388 40.5009 40.1172 40.4106 39.9818 40.388C40.0043 40.23 39.9761 40.0833 39.8971 39.9479C39.8181 39.8125 39.7279 39.7109 39.6263 39.6432C39.5247 39.5755 39.3837 39.4852 39.2031 39.3724C39.0226 39.2595 38.8984 39.1806 38.8307 39.1354C38.7856 39.0903 38.7066 39.0226 38.5938 38.9323C38.4809 38.842 38.4019 38.7799 38.3568 38.7461C38.3116 38.7122 38.227 38.6615 38.1029 38.5938C37.9787 38.526 37.8828 38.5035 37.8151 38.526C37.7474 38.5486 37.6345 38.5599 37.4766 38.5599L37.375 38.5938C37.3073 38.6163 37.2452 38.6445 37.1888 38.6784C37.1324 38.7122 37.0703 38.7461 37.0026 38.7799C36.9349 38.8138 36.8898 38.8477 36.8672 38.8815C36.8446 38.9154 36.8446 38.9436 36.8672 38.9661C36.3932 38.5825 35.987 38.3342 35.6484 38.2214C35.5356 38.1988 35.4115 38.1367 35.276 38.0352C35.1406 37.9336 35.0221 37.8546 34.9206 37.7982C34.819 37.7418 34.7062 37.7248 34.582 37.7474C34.4579 37.77 34.3281 37.849 34.1927 37.9844C34.0799 38.0972 34.0122 38.2665 33.9896 38.4922C33.967 38.7179 33.9444 38.8646 33.9219 38.9323C33.7639 38.8194 33.7639 38.622 33.9219 38.3398C34.0799 38.0577 34.1024 37.849 33.9896 37.7135C33.9219 37.5781 33.8034 37.5273 33.6341 37.5612C33.4648 37.5951 33.3294 37.6458 33.2279 37.7135C33.1263 37.7812 32.9965 37.8772 32.8385 38.0013C32.6806 38.1254 32.579 38.1988 32.5339 38.2214C32.4887 38.2439 32.3928 38.306 32.2461 38.4076C32.0994 38.5091 32.0035 38.5938 31.9583 38.6615C31.8906 38.7517 31.8229 38.8872 31.7552 39.0677C31.6875 39.2483 31.6311 39.3724 31.5859 39.4401C31.5408 39.3498 31.411 39.2765 31.1966 39.2201C30.9822 39.1636 30.875 39.1016 30.875 39.0339C30.9201 39.2595 30.9653 39.6545 31.0104 40.2188C31.0556 40.783 31.112 41.2118 31.1797 41.5052C31.3377 42.2049 31.2023 42.7465 30.7734 43.1302C30.1641 43.6944 29.8368 44.1458 29.7917 44.4844C29.7014 44.9809 29.8368 45.2743 30.1979 45.3646C30.1979 45.5226 30.1076 45.7539 29.9271 46.0586C29.7465 46.3633 29.6675 46.6059 29.6901 46.7865C29.6901 46.9219 29.7127 47.1024 29.7578 47.3281Z" fill="#F1B537"/>
</svg>
