<svg width="24" height="18" viewBox="0 0 24 18" fill="none" xmlns="http://www.w3.org/2000/svg">
<path d="M22.647 10.4118C23.1668 10.4118 23.5881 9.99039 23.5881 9.47059C23.5881 8.95079 23.1668 8.52941 22.647 8.52941L22.647 10.4118ZM0.999915 9.47059L0.334403 8.80507C0.151112 8.98836 0.0515296 9.23913 0.0591437 9.49823C0.0667578 9.75733 0.180894 10.0018 0.374631 10.174L0.999915 9.47059ZM8.84522 17.7034C9.23372 18.0488 9.82861 18.0138 10.1739 17.6253C10.5193 17.2368 10.4843 16.6419 10.0958 16.2966L8.84522 17.7034ZM10.136 1.66551C10.5036 1.29796 10.5036 0.702039 10.136 0.334487C9.76846 -0.033065 9.17254 -0.0330651 8.80499 0.334487L10.136 1.66551ZM22.647 8.52941L0.999915 8.52941L0.999915 10.4118L22.647 10.4118L22.647 8.52941ZM0.374631 10.174L8.84522 17.7034L10.0958 16.2966L1.6252 8.76714L0.374631 10.174ZM1.66543 10.1361L10.136 1.66551L8.80499 0.334487L0.334403 8.80507L1.66543 10.1361Z" fill="#F1B537"/>
</svg>
