<svg width="64" height="64" viewBox="0 0 64 64" fill="none" xmlns="http://www.w3.org/2000/svg">
<path d="M62.2 36.6C61.8565 36.8647 61.4336 37.0056 61 37C60.6895 37 60.3833 36.9277 60.1056 36.7888C59.8279 36.65 59.5863 36.4484 59.4 36.2C58.1945 34.5796 56.6255 33.265 54.8191 32.3618C53.0127 31.4586 51.0196 30.9922 49 31C48.4696 31 47.9609 30.7893 47.5858 30.4142C47.2107 30.0391 47 29.5304 47 29C47 28.4696 47.2107 27.9608 47.5858 27.5858C47.9609 27.2107 48.4696 27 49 27C50.1383 26.9988 51.2527 26.6738 52.2132 26.063C53.1737 25.4522 53.9407 24.5808 54.4245 23.5505C54.9084 22.5202 55.0892 21.3735 54.9458 20.2443C54.8024 19.1151 54.3408 18.05 53.6149 17.1733C52.8889 16.2966 51.9285 15.6444 50.8458 15.2931C49.7632 14.9417 48.6029 14.9055 47.5004 15.1888C46.398 15.472 45.3988 16.063 44.6197 16.8928C43.8405 17.7226 43.3134 18.7569 43.1 19.875C43.0612 20.1423 42.9686 20.3991 42.8279 20.6297C42.6871 20.8603 42.5011 21.06 42.2811 21.2167C42.061 21.3734 41.8115 21.4839 41.5476 21.5416C41.2836 21.5993 41.0107 21.6028 40.7454 21.5521C40.48 21.5014 40.2277 21.3975 40.0036 21.2466C39.7795 21.0957 39.5883 20.9009 39.4416 20.6741C39.2948 20.4473 39.1955 20.1931 39.1497 19.9268C39.1039 19.6606 39.1125 19.3878 39.175 19.125C39.4717 17.5695 40.1336 16.1068 41.1061 14.8571C42.0786 13.6075 43.334 12.6066 44.7689 11.937C46.2038 11.2673 47.7772 10.948 49.3597 11.0053C50.9421 11.0626 52.4883 11.4948 53.8711 12.2665C55.2538 13.0382 56.4335 14.1272 57.3131 15.4439C58.1927 16.7606 58.7471 18.2674 58.9305 19.8402C59.114 21.413 58.9213 23.0069 58.3684 24.4907C57.8154 25.9745 56.918 27.3058 55.75 28.375C58.4682 29.5536 60.83 31.4241 62.6 33.8C62.7576 34.0101 62.8723 34.2492 62.9374 34.5036C63.0026 34.7581 63.0171 35.0228 62.9799 35.2828C62.9428 35.5428 62.8548 35.793 62.721 36.019C62.5871 36.245 62.4101 36.4424 62.2 36.6ZM48.2 53.125C48.4257 53.6033 48.4553 54.151 48.2825 54.6509C48.1096 55.1508 47.748 55.5632 47.275 55.8C46.9991 55.9229 46.7019 55.9908 46.4 56C46.0253 55.9974 45.6586 55.8909 45.3408 55.6922C45.023 55.4936 44.7666 55.2107 44.6 54.875C43.4467 52.5158 41.6543 50.5279 39.4267 49.1373C37.1992 47.7468 34.626 47.0096 32 47.0096C29.3741 47.0096 26.8009 47.7468 24.5733 49.1373C22.3457 50.5279 20.5533 52.5158 19.4 54.875C19.2852 55.1115 19.125 55.3231 18.9284 55.4976C18.7318 55.6721 18.5027 55.8061 18.2543 55.8921C18.0058 55.978 17.7429 56.014 17.4805 55.9983C17.2181 55.9825 16.9614 55.9151 16.725 55.8C16.252 55.5632 15.8904 55.1508 15.7176 54.6509C15.5447 54.151 15.5743 53.6033 15.8 53.125C17.6587 49.2978 20.8113 46.2514 24.7 44.525C22.7096 42.9994 21.2471 40.8885 20.5181 38.4889C19.7892 36.0893 19.8303 33.5216 20.6358 31.1466C21.4413 28.7716 22.9706 26.7086 25.009 25.2476C27.0473 23.7865 29.4921 23.0008 32 23.0008C34.5079 23.0008 36.9527 23.7865 38.9911 25.2476C41.0294 26.7086 42.5587 28.7716 43.3642 31.1466C44.1697 33.5216 44.2108 36.0893 43.4819 38.4889C42.7529 40.8885 41.2905 42.9994 39.3 44.525C43.1887 46.2514 46.3413 49.2978 48.2 53.125ZM32 43C33.5823 43 35.129 42.5308 36.4446 41.6517C37.7602 40.7727 38.7855 39.5233 39.391 38.0615C39.9965 36.5996 40.155 34.9911 39.8463 33.4393C39.5376 31.8874 38.7757 30.462 37.6569 29.3431C36.538 28.2243 35.1126 27.4624 33.5607 27.1537C32.0089 26.845 30.4003 27.0035 28.9385 27.609C27.4767 28.2145 26.2273 29.2398 25.3483 30.5554C24.4692 31.871 24 33.4177 24 35C24.0066 37.1197 24.8516 39.1507 26.3504 40.6496C27.8493 42.1484 29.8803 42.9934 32 43ZM17 29C17 28.4696 16.7893 27.9608 16.4142 27.5858C16.0391 27.2107 15.5304 27 15 27C13.8617 26.9988 12.7473 26.6738 11.7868 26.063C10.8263 25.4522 10.0593 24.5808 9.57549 23.5505C9.09164 22.5202 8.91084 21.3735 9.0542 20.2443C9.19757 19.1151 9.65918 18.05 10.3852 17.1733C11.1111 16.2966 12.0715 15.6444 13.1542 15.2931C14.2368 14.9417 15.3971 14.9055 16.4996 15.1888C17.602 15.472 18.6012 16.063 19.3803 16.8928C20.1595 17.7226 20.6866 18.7569 20.9 19.875C20.9388 20.1423 21.0314 20.3991 21.1721 20.6297C21.3129 20.8603 21.4989 21.06 21.719 21.2167C21.939 21.3734 22.1885 21.4839 22.4525 21.5416C22.7164 21.5993 22.9893 21.6028 23.2546 21.5521C23.52 21.5014 23.7723 21.3975 23.9964 21.2466C24.2205 21.0957 24.4117 20.9009 24.5584 20.6741C24.7052 20.4473 24.8045 20.1931 24.8503 19.9268C24.8961 19.6606 24.8875 19.3878 24.825 19.125C24.5283 17.5695 23.8665 16.1068 22.8939 14.8571C21.9214 13.6075 20.6661 12.6066 19.2311 11.937C17.7962 11.2673 16.2228 10.948 14.6403 11.0053C13.0579 11.0626 11.5117 11.4948 10.1289 12.2665C8.74619 13.0382 7.56648 14.1272 6.68687 15.4439C5.80727 16.7606 5.25292 18.2674 5.06947 19.8402C4.88601 21.413 5.07868 23.0069 5.63163 24.4907C6.18458 25.9745 7.08199 27.3058 8.25001 28.375C5.53179 29.5536 3.16998 31.4241 1.40001 33.8C1.08175 34.2243 0.945095 34.7577 1.02011 35.2828C1.09512 35.8079 1.37566 36.2817 1.80001 36.6C2.14353 36.8647 2.56637 37.0056 3.00001 37C3.3105 37 3.61672 36.9277 3.89444 36.7888C4.17215 36.65 4.41371 36.4484 4.60001 36.2C5.80547 34.5796 7.37454 33.265 9.1809 32.3618C10.9873 31.4586 12.9805 30.9922 15 31C15.5304 31 16.0391 30.7893 16.4142 30.4142C16.7893 30.0391 17 29.5304 17 29Z" fill="#F1B537"/>
</svg>
