<svg width="24" height="18" viewBox="0 0 24 18" fill="none" xmlns="http://www.w3.org/2000/svg">
<path d="M1.05884 7.58824C0.539041 7.58824 0.117661 8.00961 0.117661 8.52941C0.117661 9.04921 0.539041 9.47059 1.05884 9.47059V7.58824ZM22.7059 8.52941L23.3714 9.19492C23.5547 9.01163 23.6543 8.76087 23.6467 8.50177C23.6391 8.24267 23.5249 7.99818 23.3312 7.82597L22.7059 8.52941ZM14.8606 0.296556C14.4721 -0.0487787 13.8772 -0.013785 13.5319 0.374716C13.1865 0.763218 13.2215 1.35811 13.61 1.70344L14.8606 0.296556ZM13.5698 16.3345C13.2022 16.702 13.2022 17.298 13.5698 17.6655C13.9373 18.0331 14.5333 18.0331 14.9008 17.6655L13.5698 16.3345ZM1.05884 9.47059H22.7059V7.58824H1.05884V9.47059ZM23.3312 7.82597L14.8606 0.296556L13.61 1.70344L22.0806 9.23286L23.3312 7.82597ZM22.0404 7.8639L13.5698 16.3345L14.9008 17.6655L23.3714 9.19492L22.0404 7.8639Z" fill="#F1B537"/>
</svg>
